<svg width="96" height="92" viewBox="0 0 96 92" fill="none" xmlns="http://www.w3.org/2000/svg">
<path d="M89.0513 46C89.0513 33.6348 83.8419 22.4904 75.4895 14.6345L75.0895 14.263C67.4257 7.23451 57.2167 2.94872 46 2.94872C22.2234 2.94872 2.94872 22.2234 2.94872 46C2.94872 69.7766 22.2234 89.0513 46 89.0513V92C20.5949 92 0 71.4051 0 46C0 20.5949 20.5949 0 46 0C57.9832 0 68.8962 4.58208 77.0825 12.0897C86.2516 20.4988 92 32.5781 92 46C92 71.4051 71.4051 92 46 92V89.0513C69.7766 89.0513 89.0513 69.7766 89.0513 46Z" fill="#D22027"/>
<path d="M78.2451 46C78.2451 28.1915 63.8084 13.7549 46 13.7549C28.1915 13.7549 13.7549 28.1915 13.7549 46C13.7549 63.8084 28.1915 78.2451 46 78.2451V81.1764C26.5725 81.1764 10.8235 65.4274 10.8235 46C10.8235 26.5725 26.5725 10.8235 46 10.8235C65.4274 10.8235 81.1764 26.5725 81.1764 46C81.1764 65.4274 65.4274 81.1764 46 81.1764V78.2451C63.8084 78.2451 78.2451 63.8084 78.2451 46Z" fill="#D22027"/>
<path d="M67.0708 46.1691C67.0708 34.6254 57.7128 25.2674 46.1691 25.2674C34.6254 25.2674 25.2674 34.6254 25.2674 46.1691C25.2674 57.7128 34.6254 67.0708 46.1691 67.0708V70.0147C32.9995 70.0147 22.3235 59.3386 22.3235 46.1691C22.3235 32.9995 32.9995 22.3235 46.1691 22.3235C59.3386 22.3235 70.0147 32.9995 70.0147 46.1691C70.0147 59.3386 59.3386 70.0147 46.1691 70.0147V67.0708C57.7128 67.0708 67.0708 57.7128 67.0708 46.1691Z" fill="#D22027"/>
<path d="M56.2598 45.9998C56.2598 40.3334 51.6663 35.74 46 35.74C40.3337 35.74 35.7402 40.3334 35.7402 45.9998C35.7402 51.6661 40.3337 56.2596 46 56.2596V59.1909C38.7147 59.1909 32.8088 53.2851 32.8088 45.9998C32.8088 38.7145 38.7147 32.8086 46 32.8086C53.2853 32.8086 59.1912 38.7145 59.1912 45.9998C59.1912 53.2851 53.2853 59.1909 46 59.1909V56.2596C51.6663 56.2596 56.2598 51.6661 56.2598 45.9998Z" fill="#D22027"/>
<path d="M86.451 12.9284L95.0441 15.4792L83.2936 25.7015H74.0843L46.6974 47.0403C46.0544 47.5414 45.1255 47.4282 44.6226 46.7875C44.1198 46.1467 44.2334 45.221 44.8764 44.7199L72.097 23.5105V13.3513L85.2113 3.04419L86.451 12.9284ZM75.0532 14.7796V22.7557H82.185L89.0581 16.7761L83.7572 15.2028L82.9278 8.59056L75.0532 14.7796Z" fill="#D22027"/>
</svg>
