<svg width="74" height="97" viewBox="0 0 74 97" fill="none" xmlns="http://www.w3.org/2000/svg">
<path d="M15.5486 23.1895H58.207C58.8634 23.1895 59.4763 23.5186 59.8404 24.0666L73.426 44.5141C73.8784 45.195 73.8639 46.0857 73.3899 46.7516L38.4753 95.798L38.3995 95.8981C37.6174 96.8646 36.1382 96.8646 35.3562 95.8981L35.2803 95.798L0.365734 46.7516C-0.10831 46.0857 -0.122771 45.195 0.329582 44.5141L13.9152 24.0666C14.2566 23.5529 14.8166 23.2314 15.4262 23.1933L15.5486 23.1895ZM2.98509 45.5902L36.8778 93.2006L70.7703 45.5902L57.7568 26.0035H15.9989L2.98509 45.5902Z" fill="#D22027"/>
<path d="M56.5028 24.9398C57.1473 23.6119 58.9828 23.4434 59.859 24.6317L59.9008 24.6905L73.0855 43.9272L73.1262 43.9887C73.9514 45.2885 73.0195 47.0075 71.4592 47.0075H50.067C50.0251 47.2097 49.9773 47.4326 49.9243 47.6742C49.7091 48.6549 49.3986 49.9827 49.0154 51.5742C48.2483 54.7593 47.1826 59.0292 45.9861 63.753C43.5927 73.2021 40.6714 84.4852 38.5589 92.5787C38.0206 94.6409 35.1965 94.4431 34.7383 92.5301L23.8364 47.0075H2.61802C1.05371 47.0075 0.113 45.2745 0.966456 43.9651L13.4993 24.7372L13.5397 24.6773C14.3912 23.4646 16.2385 23.5971 16.9077 24.919L16.939 24.9838L25.0992 42.5838L35.4867 25.0546L35.5236 24.9945C36.305 23.772 38.1066 23.7904 38.863 25.0285L38.8987 25.0892L48.7256 42.4729L56.4725 25.0052L56.5028 24.9398ZM36.6893 88.5895C38.6907 80.9 41.1742 71.2854 43.2568 63.0634C44.4525 58.3427 45.5149 54.0854 46.2781 50.9165C46.6599 49.331 46.965 48.0249 47.1741 47.072C47.1789 47.0503 47.1832 47.0288 47.1879 47.0075H26.7316L36.6893 88.5895ZM51.0411 44.1955H69.8574L58.4331 27.5272L51.0411 44.1955ZM27.4162 44.1955H46.4667L37.1652 27.7422L27.4162 44.1955ZM4.17582 44.1955H22.7438L15.0255 27.5486L4.17582 44.1955Z" fill="#D22027"/>
<path d="M10.7929 1.6377C11.5161 1.22242 12.4265 1.43028 12.9023 2.09375L12.9911 2.23242L21.4208 16.9121L21.495 17.0596C21.8277 17.8047 21.5489 18.6951 20.8261 19.1104C20.1029 19.5256 19.1925 19.3177 18.7167 18.6543L18.6278 18.5156L10.1982 3.83594L10.123 3.68848C9.79043 2.94331 10.07 2.05282 10.7929 1.6377ZM34.289 17.7139V1.61035C34.289 0.721018 35.01 9.29204e-05 35.8993 0C36.7887 0 37.5097 0.720961 37.5097 1.61035V17.7139C37.5097 18.6033 36.7887 19.3242 35.8993 19.3242C35.01 19.3241 34.289 18.6032 34.289 17.7139ZM57.5859 2.16211C58.0268 1.47539 58.9253 1.22053 59.6689 1.59766C60.4618 2.00008 60.7782 2.96962 60.3759 3.7627L52.9306 18.4424C52.5283 19.2356 51.5587 19.5527 50.7655 19.1504C49.9724 18.7481 49.6552 17.7785 50.0575 16.9854L57.5038 2.30566L57.5859 2.16211Z" fill="#D22027"/>
</svg>
