<svg width="90" height="84" viewBox="0 0 90 84" fill="none" xmlns="http://www.w3.org/2000/svg">
<path d="M36.5312 17.2248C52.5379 14.0307 71.1496 18.7812 89.2936 40.3816L89.3476 40.4486C89.8725 41.1306 89.9663 42.1514 89.3773 42.9328L89.3162 43.0101C81.6533 52.2435 68.1557 63.2409 52.1626 66.4298C44.1362 68.0302 35.4849 67.6608 26.6739 64.1122C18.0074 60.6218 9.26897 54.0892 0.844726 43.4897L0.443863 42.9818C-0.0978104 42.2911 -0.192847 41.2383 0.435006 40.4443L0.778725 40.014C8.08168 30.9511 20.9215 20.3396 36.5312 17.2248ZM86.5824 41.7109C69.1787 21.288 51.7809 17.1711 37.1026 20.1001C22.4546 23.023 10.2183 33.023 3.1719 41.7115C11.3335 51.9671 19.6692 58.1314 27.7651 61.3921C35.9955 64.7069 44.0632 65.0556 51.5914 63.5545C66.3835 60.6051 79.1061 50.5021 86.5824 41.7109Z" fill="#D22027"/>
<path d="M67.4205 42.0001C67.4205 29.4633 57.2574 19.3002 44.7206 19.3002C32.1838 19.3002 22.0206 29.4633 22.0206 42.0001C22.0206 54.5369 32.1838 64.7001 44.7206 64.7001V67.3362C30.7279 67.3362 19.3845 55.9928 19.3845 42.0001C19.3845 28.0074 30.7279 16.6641 44.7206 16.6641C58.7133 16.6641 70.0566 28.0074 70.0566 42.0001C70.0566 55.9928 58.7133 67.3362 44.7206 67.3362V64.7001C57.2574 64.7001 67.4205 54.5369 67.4205 42.0001Z" fill="#D22027"/>
<path d="M53.8189 42.0001C53.8189 37.1417 49.8216 33.2032 44.8906 33.2032C39.9597 33.2032 35.9624 37.1417 35.9624 42.0001C35.9624 46.8585 39.9597 50.7971 44.8906 50.7971V53.3929C38.5047 53.3929 33.3279 48.2922 33.3279 42.0001C33.3279 35.7081 38.5047 30.6074 44.8906 30.6074C51.2766 30.6074 56.4534 35.7081 56.4534 42.0001C56.4534 48.2922 51.2766 53.3929 44.8906 53.3929V50.7971C49.8216 50.7971 53.8189 46.8585 53.8189 42.0001Z" fill="#D22027"/>
<path d="M43.1904 24.7233V1.46292C43.1904 0.654971 43.8756 0 44.7208 0C45.566 0 46.2512 0.654971 46.2512 1.46292V24.7233C46.2512 25.5313 45.566 26.1863 44.7208 26.1863C43.8756 26.1863 43.1904 25.5313 43.1904 24.7233Z" fill="#D22027"/>
<path d="M43.1904 82.5371V59.2766C43.1904 58.4687 43.8756 57.8137 44.7208 57.8137C45.566 57.8137 46.2512 58.4687 46.2512 59.2766V82.5371C46.2512 83.345 45.566 84 44.7208 84C43.8756 84 43.1904 83.345 43.1904 82.5371Z" fill="#D22027"/>
<path d="M27.444 43.5303L4.18362 43.5303C3.37567 43.5303 2.7207 42.8451 2.7207 41.9999C2.7207 41.1547 3.37567 40.4695 4.18362 40.4695L27.444 40.4695C28.252 40.4695 28.907 41.1547 28.907 41.9999C28.907 42.8451 28.252 43.5303 27.444 43.5303Z" fill="#D22027"/>
<path d="M85.2578 43.5303L61.9973 43.5303C61.1894 43.5303 60.5344 42.8451 60.5344 41.9999C60.5344 41.1547 61.1894 40.4695 61.9973 40.4695L85.2578 40.4695C86.0657 40.4695 86.7207 41.1547 86.7207 41.9999C86.7207 42.8451 86.0657 43.5303 85.2578 43.5303Z" fill="#D22027"/>
<path d="M5.44141 67.4393V55.9735C5.44141 55.1617 6.09595 54.5035 6.90338 54.5035C7.7108 54.5035 8.36535 55.1617 8.36535 55.9735V67.4393C8.36535 68.5759 9.28172 69.4973 10.4121 69.4973H25.9821C26.7896 69.4973 27.4441 70.1554 27.4441 70.9673C27.4441 71.7791 26.7896 72.4373 25.9821 72.4373H10.4121C7.66687 72.4373 5.44141 70.1996 5.44141 67.4393ZM81.7564 67.4393V55.9735C81.7564 55.1617 82.4109 54.5035 83.2184 54.5035C84.0258 54.5035 84.6803 55.1617 84.6803 55.9735V67.4393C84.6803 70.1996 82.4549 72.4373 79.7096 72.4373H64.1396C63.3322 72.4373 62.6777 71.7791 62.6777 70.9673C62.6777 70.1554 63.3322 69.4973 64.1396 69.4973H79.7096C80.84 69.4973 81.7564 68.5759 81.7564 67.4393ZM5.44141 25.986V14.5201C5.44141 11.7599 7.66687 9.52222 10.4121 9.52222H25.9821C26.7896 9.52222 27.4441 10.1803 27.4441 10.9922C27.4441 11.804 26.7896 12.4622 25.9821 12.4622H10.4121C9.28172 12.4622 8.36535 13.3836 8.36535 14.5201V25.986C8.36535 26.7978 7.7108 27.4559 6.90338 27.4559C6.09595 27.4559 5.44141 26.7978 5.44141 25.986ZM81.7564 25.986V14.5201C81.7564 13.3836 80.84 12.4622 79.7096 12.4622H64.1396C63.3322 12.4622 62.6777 11.804 62.6777 10.9922C62.6777 10.1803 63.3322 9.52222 64.1396 9.52222H79.7096C82.4549 9.52222 84.6803 11.7599 84.6803 14.5201V25.986C84.6803 26.7978 84.0258 27.4559 83.2184 27.4559C82.4109 27.4559 81.7564 26.7978 81.7564 25.986Z" fill="#D22027"/>
</svg>
